<svg width="1000" height="400" viewBox="0 0 1000 400" xmlns="http://www.w3.org/2000/svg" role="img" aria-label="Font picker with measured Nerd Font coverage">
  <defs>
    <clipPath id="clip-fn"><rect x="0.5" y="0.5" width="999" height="399" rx="12" ry="12" /></clipPath>
  </defs>
  <title>Font picker with measured Nerd Font coverage</title>
  <rect x="0.5" y="0.5" width="999" height="399" fill="#0f1117" rx="12" ry="12" stroke="#22252f" stroke-width="1" />
  <g clip-path="url(#clip-fn)">
  <rect x="0" y="0" width="1000" height="38" fill="#14161e" />
  <line x1="0" y1="38.5" x2="1000" y2="38.5" stroke="#22252f" stroke-width="1" />
  <text x="16" y="23.5" font-family="'Segoe UI',Inter,system-ui,sans-serif" font-size="12" fill="#8b93a7" font-weight="600" xml:space="preserve">Bitig · Settings · Font</text>
  <line x1="916" y1="19" x2="928" y2="19" stroke="#8b93a7" stroke-width="1.3" />
  <rect x="946" y="14" width="10" height="10" fill="none" stroke="#8b93a7" stroke-width="1.3" />
  <line x1="974" y1="14" x2="984" y2="24" stroke="#8b93a7" stroke-width="1.3" />
  <line x1="984" y1="14" x2="974" y2="24" stroke="#8b93a7" stroke-width="1.3" />
  <text x="28" y="73" font-family="'Segoe UI',Inter,system-ui,sans-serif" font-size="17" fill="#d8dee9" font-weight="700" xml:space="preserve">Font</text>
  <text x="28" y="95" font-family="'Segoe UI',Inter,system-ui,sans-serif" font-size="11.5" fill="#4b5263" xml:space="preserve">Monospace families only. Nerd Font coverage is measured on a canvas, not guessed from the family name.</text>
  <rect x="28" y="123" width="420" height="38" fill="#7dd3fc" rx="8" ry="8" opacity="0.14" />
  <rect x="28" y="123" width="420" height="38" fill="none" rx="8" ry="8" stroke="#7dd3fc" stroke-width="1" />
  <text x="48" y="147" font-family="'Segoe UI',Inter,system-ui,sans-serif" font-size="13" fill="#d8dee9" font-weight="600" xml:space="preserve">MesloLGS Nerd Font</text>
  <rect x="300" y="130" width="87.76" height="20" fill="#7ee787" rx="10" ry="10" opacity="0.16" />
  <rect x="300" y="130" width="87.76" height="20" fill="none" rx="10" ry="10" stroke="#7ee787" stroke-width="1" opacity="0.55" />
  <text x="343.88" y="144" font-family="'Segoe UI',Inter,system-ui,sans-serif" font-size="11" fill="#7ee787" font-weight="600" text-anchor="middle" xml:space="preserve">Nerd Font ✓</text>
  <rect x="28" y="169" width="420" height="38" fill="none" rx="8" ry="8" stroke="#22252f" stroke-width="1" />
  <text x="48" y="193" font-family="'Segoe UI',Inter,system-ui,sans-serif" font-size="13" fill="#8b93a7" font-weight="400" xml:space="preserve">JetBrains Mono</text>
  <rect x="28" y="215" width="420" height="38" fill="none" rx="8" ry="8" stroke="#22252f" stroke-width="1" />
  <text x="48" y="239" font-family="'Segoe UI',Inter,system-ui,sans-serif" font-size="13" fill="#8b93a7" font-weight="400" xml:space="preserve">Cascadia Code</text>
  <rect x="28" y="261" width="420" height="38" fill="none" rx="8" ry="8" stroke="#22252f" stroke-width="1" />
  <text x="48" y="285" font-family="'Segoe UI',Inter,system-ui,sans-serif" font-size="13" fill="#8b93a7" font-weight="400" xml:space="preserve">Consolas</text>
  <text x="490" y="131" font-family="'Segoe UI',Inter,system-ui,sans-serif" font-size="10.5" fill="#4b5263" font-weight="700" xml:space="preserve">PREVIEW</text>
  <rect x="490" y="141" width="482" height="130" fill="#171a22" rx="10" ry="10" stroke="#22252f" stroke-width="1" />
  <g fill="none" stroke="#7dd3fc" stroke-width="1.6" stroke-linejoin="round" stroke-linecap="round">
    <path d="M512 161 l11 10 -11 10" />
    <path d="M544 163 v14" />
    <path d="M544 170 h8 a4 4 0 0 0 4 -4 v-3" />
    <circle cx="544" cy="160" r="2.4" fill="#7dd3fc" />
    <circle cx="544" cy="180" r="2.4" fill="#7dd3fc" />
    <circle cx="556" cy="156" r="2.4" fill="#7dd3fc" />
    <path d="M572 179 v-18 h7 l3 4 h11 v14 z" />
    <path d="M606 180 v-21 M606 161 q9 -6 18 0 q-9 6 -18 0" />
  </g>
  <text x="510" y="171" font-family="'JetBrains Mono','Cascadia Code',Consolas,Menlo,monospace" font-size="14" fill="#d8dee9" xml:space="preserve"><tspan fill="#7dd3fc">                     </tspan><tspan fill="#d8dee9">powerline + icon glyphs render</tspan></text>
  <text x="510" y="201" font-family="'JetBrains Mono','Cascadia Code',Consolas,Menlo,monospace" font-size="14" fill="#d8dee9" xml:space="preserve"><tspan fill="#d8dee9">0O1lI  </tspan><tspan fill="#7ee787">=&gt; != &gt;= &lt;=  </tspan><tspan fill="#8b93a7">█▓▒░</tspan></text>
  <text x="510" y="231" font-family="'JetBrains Mono','Cascadia Code',Consolas,Menlo,monospace" font-size="14" fill="#d8dee9" xml:space="preserve"><tspan fill="#d2a8ff">PS </tspan><tspan fill="#79c0ff">~\bitig</tspan><tspan fill="#7dd3fc">&gt; </tspan><tspan fill="#d8dee9">git status</tspan></text>
  <text x="490" y="354" font-family="'Segoe UI',Inter,system-ui,sans-serif" font-size="12.5" fill="#d8dee9" font-weight="600" xml:space="preserve">Font size</text>
  <rect x="570" y="342" width="260" height="6" fill="#22252f" rx="3" ry="3" />
  <rect x="570" y="342" width="120" height="6" fill="#7dd3fc" rx="3" ry="3" />
  <circle cx="690" cy="345" r="8" fill="#7dd3fc" />
  <text x="848" y="354" font-family="'Segoe UI',Inter,system-ui,sans-serif" font-size="12" fill="#7dd3fc" xml:space="preserve">14 px</text>
  </g>
</svg>
